<!--?xml version="1.0" encoding="utf-8"?--><svg width="200px" height="200px" xmlns="http://www.w3.org/2000/svg" viewBox="0 0 100 100" preserveAspectRatio="xMidYMid" class="uil-default">
<rect x="0" y="0" width="100" height="100" fill="none" class="bk"></rect>
<rect x="46.5" y="40" width="7" height="20" rx="5" ry="5" fill="#ffffff" transform="rotate(0 50 50) translate(0 -30)" style="fill:white;fill-opacity:0.083;"></rect>
<rect x="46.5" y="40" width="7" height="20" rx="5" ry="5" fill="#ffffff" transform="rotate(30 50 50) translate(0 -30)" style="fill:white;fill-opacity:0.166;"></rect>
<rect x="46.5" y="40" width="7" height="20" rx="5" ry="5" fill="#ffffff" transform="rotate(60 50 50) translate(0 -30)" style="fill:white;fill-opacity:0.25;"></rect>
<rect x="46.5" y="40" width="7" height="20" rx="5" ry="5" fill="#ffffff" transform="rotate(90 50 50) translate(0 -30)" style="fill:white;fill-opacity:0.333;"></rect>
<rect x="46.5" y="40" width="7" height="20" rx="5" ry="5" fill="#ffffff" transform="rotate(120 50 50) translate(0 -30)" style="fill:white;fill-opacity:0.416;"></rect>
<rect x="46.5" y="40" width="7" height="20" rx="5" ry="5" fill="#ffffff" transform="rotate(150 50 50) translate(0 -30)" style="fill:white;fill-opacity:0.5;"></rect>
<rect x="46.5" y="40" width="7" height="20" rx="5" ry="5" fill="#ffffff" transform="rotate(180 50 50) translate(0 -30)" style="fill:white;fill-opacity:0.583;"></rect>
<rect x="46.5" y="40" width="7" height="20" rx="5" ry="5" fill="#ffffff" transform="rotate(210 50 50) translate(0 -30)" style="fill:white;fill-opacity:0.666;"></rect>
<rect x="46.5" y="40" width="7" height="20" rx="5" ry="5" fill="#ffffff" transform="rotate(240 50 50) translate(0 -30)" style="fill:white;fill-opacity:0.75;"></rect>
<rect x="46.5" y="40" width="7" height="20" rx="5" ry="5" fill="#ffffff" transform="rotate(270 50 50) translate(0 -30)" style="fill:white;fill-opacity:0.833;"></rect>
<rect x="46.5" y="40" width="7" height="20" rx="5" ry="5" fill="#ffffff" transform="rotate(300 50 50) translate(0 -30)" style="fill:white;fill-opacity:0.916;"></rect>
<rect x="46.5" y="40" width="7" height="20" rx="5" ry="5" fill="#ffffff" transform="rotate(330 50 50) translate(0 -30)" style="fill:white;fill-opacity:1;"></rect>
</svg>